HIERARCHY
ROOT Hips
{
	OFFSET 0.00000 0.00000 0.00000
	CHANNELS 6 Xposition Yposition Zposition Zrotation Yrotation Xrotation 
	JOINT LHipJoint
	{
		OFFSET 0 0 0
		CHANNELS 3 Zrotation Yrotation Xrotation
		JOINT LeftUpLeg
		{
			OFFSET 1.57338 -1.94743 0.52196
			CHANNELS 3 Zrotation Yrotation Xrotation
			JOINT LeftLeg
			{
				OFFSET 2.60333 -7.15259 0.00000
				CHANNELS 3 Zrotation Yrotation Xrotation
				JOINT LeftFoot
				{
					OFFSET 2.77855 -7.63400 0.00000
					CHANNELS 3 Zrotation Yrotation Xrotation
					JOINT LeftToeBase
					{
						OFFSET 0.19847 -0.54529 2.28466
						CHANNELS 3 Zrotation Yrotation Xrotation
						End Site
						{
							OFFSET 0.00000 -0.00000 1.17993
						}
					}
				}
			}
		}
	}
	JOINT RHipJoint
	{
		OFFSET 0 0 0
		CHANNELS 3 Zrotation Yrotation Xrotation
		JOINT RightUpLeg
		{
			OFFSET -1.61527 -1.94743 0.52196
			CHANNELS 3 Zrotation Yrotation Xrotation
			JOINT RightLeg
			{
				OFFSET -2.53829 -6.97390 0.00000
				CHANNELS 3 Zrotation Yrotation Xrotation
				JOINT RightFoot
				{
					OFFSET -2.80762 -7.71387 0.00000
					CHANNELS 3 Zrotation Yrotation Xrotation
					JOINT RightToeBase
					{
						OFFSET -0.30536 -0.83898 2.28801
						CHANNELS 3 Zrotation Yrotation Xrotation
						End Site
						{
							OFFSET -0.00000 -0.00000 1.21323
						}
					}
				}
			}
		}
	}
	JOINT LowerBack
	{
		OFFSET 0 0 0
		CHANNELS 3 Zrotation Yrotation Xrotation
		JOINT Spine
		{
			OFFSET -0.04381 1.99497 -0.19778
			CHANNELS 3 Zrotation Yrotation Xrotation
			JOINT Spine1
			{
				OFFSET -0.01959 2.01295 -0.04372
				CHANNELS 3 Zrotation Yrotation Xrotation
				JOINT Neck
				{
					OFFSET 0 0 0
					CHANNELS 3 Zrotation Yrotation Xrotation
					JOINT Neck1
					{
						OFFSET -0.05459 1.76913 0.09708
						CHANNELS 3 Zrotation Yrotation Xrotation
						JOINT Head
						{
							OFFSET 0.09461 1.77368 -0.11172
							CHANNELS 3 Zrotation Yrotation Xrotation
							End Site
							{
								OFFSET 0.03812 1.78157 -0.04834
							}
						}
					}
				}
				JOINT LeftShoulder
				{
					OFFSET 0 0 0
					CHANNELS 3 Zrotation Yrotation Xrotation
					JOINT LeftArm
					{
						OFFSET 3.50922 1.24034 -0.28866
						CHANNELS 3 Zrotation Yrotation Xrotation
						JOINT LeftForeArm
						{
							OFFSET 5.40188 -0.00000 0.00000
							CHANNELS 3 Zrotation Yrotation Xrotation
							JOINT LeftHand
							{
								OFFSET 3.68559 -0.00000 0.00000
								CHANNELS 3 Zrotation Yrotation Xrotation
								JOINT LeftFingerBase
								{
									OFFSET 0 0 0
									CHANNELS 3 Zrotation Yrotation Xrotation
									JOINT LeftHandIndex1
									{
										OFFSET 0.61753 -0.00000 0.00000
										CHANNELS 3 Zrotation Yrotation Xrotation
										End Site
										{
											OFFSET 0.49787 -0.00000 0.00000
										}
									}
								}
								JOINT LThumb
								{
									OFFSET 0 0 0
									CHANNELS 3 Zrotation Yrotation Xrotation
									End Site
									{
										OFFSET 0.50547 -0.00000 0.50547
									}
								}
							}
						}
					}
				}
				JOINT RightShoulder
				{
					OFFSET 0 0 0
					CHANNELS 3 Zrotation Yrotation Xrotation
					JOINT RightArm
					{
						OFFSET -2.95373 1.39649 -0.27346
						CHANNELS 3 Zrotation Yrotation Xrotation
						JOINT RightForeArm
						{
							OFFSET -6.10670 -0.00000 -0.00000
							CHANNELS 3 Zrotation Yrotation Xrotation
							JOINT RightHand
							{
								OFFSET -3.63052 -0.00000 0.00000
								CHANNELS 3 Zrotation Yrotation Xrotation
								JOINT RightFingerBase
								{
									OFFSET 0 0 0
									CHANNELS 3 Zrotation Yrotation Xrotation
									JOINT RightHandIndex1
									{
										OFFSET -0.58385 -0.00000 0.00000
										CHANNELS 3 Zrotation Yrotation Xrotation
										End Site
										{
											OFFSET -0.47071 -0.00000 0.00000
										}
									}
								}
								JOINT RThumb
								{
									OFFSET 0 0 0
									CHANNELS 3 Zrotation Yrotation Xrotation
									End Site
									{
										OFFSET -0.47790 -0.00000 0.47790
									}
								}
							}
						}
					}
				}
			}
		}
	}
}
MOTION
Frames: 15
Frame Time: .0083333
-0.2842 18.9638 -13.2324 0 0 0 0 0 0 -21 0 0 0 0 0 0 0 0 0 0 0 0 0 0 21 0 0 0 0 0 0 0 0 0 0 0 0 0 0 0 0 0 0 0 0 0 0 -16 0 0 21 0 0 11 0 0 0 -8 0 0 0 0 0 0 0 0 0 0 0 0 0 0 0 0 0 0 0 0 8 0 0 0 0 0 0 0 0 0 0 0 0 0 0 0 0 0
-0.2842 18.9638 -13.2324 1.7360 -3.6990 3.1940 0.0000 0.0000 0.0000 -21.1699 -9.2202 2.5526 0.2013 2.8892 7.9704 -0.1118 10.9461 -13.7829 0.1013 -2.0527 -5.6512 0.0000 0.0000 0.0000 19.8754 20.9141 4.2452 -0.6552 -5.1773 14.4149 -0.0141 -13.4667 -19.3071 -0.0125 0.7225 -1.9856 -3.2282 0.6786 2.5446 -1.1302 0.7716 -0.7229 0.6145 0.4203 -2.1969 -9.7125 -5.9175 -9.2091 7.7765 -7.8323 14.7990 3.3912 -3.7384 6.7124 0.0000 -0.0000 0.0000 -87.0120 4.9405 6.9862 12.7297 -20.8898 -2.3560 -0.0000 -0.0000 5.6043 19.8616 24.5235 8.5273 -7.1250 0.0000 -0.0000 -10.3541 55.5569 -2.7037 0.0000 -0.0000 0.0000 83.5864 -5.3046 27.6715 -15.8536 25.3217 -3.5831 0.0000 0.0000 16.4229 -23.9442 2.8654 -1.2717 7.1250 -0.0000 -0.0000 2.0301 -26.8438 0.8952
-0.2830 18.9646 -13.2281 1.7298 -3.7894 3.1957 0.0000 0.0000 0.0000 -21.1826 -9.1092 2.5938 0.1966 2.8553 7.8761 -0.1128 10.9496 -13.7712 0.0991 -2.0301 -5.5888 0.0000 0.0000 0.0000 19.8719 20.9409 4.2257 -0.6622 -5.2045 14.4927 -0.0298 -13.3568 -19.3389 -0.0107 0.6664 -1.8313 -3.1936 0.7122 2.4907 -1.1432 0.8203 -0.6970 0.5805 0.4431 -2.1409 -9.6809 -5.9232 -9.1931 7.7465 -7.8370 14.7246 3.3762 -3.7417 6.6838 0.0000 -0.0000 0.0000 -87.0036 4.9624 7.1413 12.7740 -20.9551 -2.3718 -0.0000 -0.0000 5.4930 19.9397 24.5204 8.5621 -7.1250 0.0000 -0.0000 -10.2715 55.5696 -2.6850 0.0000 -0.0000 0.0000 83.5878 -5.2500 27.5171 -15.8798 25.3574 -3.5943 0.0000 0.0000 16.9081 -22.1848 1.2349 -0.5035 7.1250 -0.0000 -0.0000 3.4114 -28.6396 1.3611
-0.2845 18.9636 -13.2286 1.7288 -3.8220 3.1593 0.0000 0.0000 0.0000 -21.1817 -9.0582 2.6362 0.1946 2.8411 7.8367 -0.1144 10.9561 -13.7540 0.0991 -2.0298 -5.5879 0.0000 0.0000 0.0000 19.8878 20.9332 4.2329 -0.6664 -5.2204 14.5384 -0.0361 -13.3145 -19.3537 -0.0125 0.7208 -1.9809 -3.2063 0.7203 2.5689 -1.1428 0.8278 -0.6753 0.5870 0.4471 -2.1630 -9.6223 -5.9434 -9.2933 7.6695 -7.8518 14.7250 3.3376 -3.7490 6.6974 -0.0000 0.0000 0.0000 -87.0234 4.9045 7.0258 12.7330 -20.8947 -2.3572 -0.0000 -0.0000 5.6170 20.0327 24.1824 8.4951 -7.1250 0.0000 -0.0000 -10.0255 55.2455 -2.5405 -0.0000 0.0000 0.0000 83.5669 -5.2134 27.5461 -15.9088 25.3968 -3.6068 0.0000 0.0000 17.0498 -21.3221 0.2904 -0.1134 7.1250 -0.0000 -0.0000 4.1184 -29.6561 1.5448
-0.2865 18.9629 -13.2299 1.7298 -3.9035 3.1026 0.0000 0.0000 0.0000 -21.1877 -8.9395 2.7212 0.1903 2.8093 7.7482 -0.1190 10.9872 -13.7221 0.0970 -2.0088 -5.5299 0.0000 0.0000 0.0000 19.9080 20.9353 4.2381 -0.6729 -5.2457 14.6107 -0.0406 -13.2634 -19.3358 -0.0159 0.8143 -2.2380 -3.2218 0.7579 2.6762 -1.1503 0.8730 -0.6593 0.5846 0.4702 -2.2086 -9.5629 -5.9691 -9.3744 7.5970 -7.8788 14.7602 3.2996 -3.7622 6.7199 -0.0000 -0.0000 0.0000 -87.0154 4.8730 7.0078 12.7172 -20.8715 -2.3516 -0.0000 -0.0000 5.6076 19.9706 24.1493 8.4561 -7.1250 0.0000 -0.0000 -10.0753 55.1994 -2.5420 -0.0000 -0.0000 0.0000 83.5654 -5.1608 27.5705 -15.8464 25.3120 -3.5800 0.0000 0.0000 16.9685 -21.5535 0.3686 -0.1456 7.1250 -0.0000 -0.0000 3.9337 -29.5727 1.4830
-0.2875 18.9629 -13.2296 1.7277 -3.9527 3.1219 0.0000 0.0000 0.0000 -21.1816 -8.8845 2.7290 0.1866 2.7824 7.6734 -0.1200 10.9800 -13.6921 0.0956 -1.9936 -5.4879 0.0000 0.0000 0.0000 19.9063 20.9846 4.1846 -0.6792 -5.2694 14.6784 -0.0413 -13.2465 -19.3208 -0.0166 0.8329 -2.2891 -3.2093 0.7721 2.6579 -1.1608 0.8934 -0.6448 0.5662 0.4797 -2.1837 -9.5800 -5.9664 -9.3574 7.6164 -7.8758 14.7353 3.3094 -3.7606 6.7102 0.0000 0.0000 0.0000 -87.0100 4.8415 6.9121 12.7135 -20.8660 -2.3503 -0.0000 -0.0000 5.8079 19.8624 24.3622 8.4757 -7.1250 0.0000 -0.0000 -10.2811 55.3936 -2.6435 0.0000 0.0000 0.0000 83.5797 -5.1509 27.5217 -15.8601 25.3306 -3.5859 0.0000 0.0000 17.0060 -21.4469 0.2172 -0.0853 7.1250 -0.0000 -0.0000 4.0236 -29.7348 1.5015
-0.2892 18.9643 -13.2285 1.7724 -3.9853 3.1351 0.0000 0.0000 0.0000 -21.2198 -8.8561 2.7193 0.1852 2.7721 7.6449 -0.1220 10.9772 -13.6517 0.0990 -2.0294 -5.5869 0.0000 0.0000 0.0000 19.8472 20.9751 4.1444 -0.6833 -5.2851 14.7234 -0.0531 -13.1607 -19.3418 -0.0126 0.7261 -1.9955 -3.2581 0.7762 2.6425 -1.1827 0.8977 -0.6323 0.5711 0.4819 -2.1628 -9.6077 -5.9414 -9.2964 7.6747 -7.8474 14.6525 3.3373 -3.7456 6.6740 0.0000 0.0000 0.0000 -86.9899 4.8369 6.8338 12.7188 -20.8738 -2.3521 -0.0000 -0.0000 6.1015 19.6823 24.8214 8.5398 -7.1250 0.0000 -0.0000 -10.6763 55.8217 -2.8581 0.0000 0.0000 0.0000 83.6044 -5.2124 27.4886 -15.9499 25.4527 -3.6244 0.0000 0.0000 17.0609 -21.3053 -0.0495 0.0193 7.1250 -0.0000 -0.0000 4.1464 -30.0198 1.5193
-0.2913 18.9654 -13.2294 1.7377 -4.0089 3.1272 0.0000 0.0000 0.0000 -21.1725 -8.8188 2.7455 0.1832 2.7565 7.6014 -0.1216 10.9727 -13.6530 0.1003 -2.0420 -5.6218 0.0000 0.0000 0.0000 19.8995 20.9968 4.1434 -0.6878 -5.3022 14.7725 -0.0684 -13.0865 -19.4180 -0.0099 0.6417 -1.7633 -3.2276 0.7878 2.6769 -1.1855 0.9130 -0.6182 0.5502 0.4891 -2.1676 -9.6493 -5.9364 -9.2609 7.7829 -7.8524 14.5982 3.3796 -3.7431 6.6569 0.0000 -0.0000 0.0000 -86.9536 4.8654 6.9399 12.7460 -20.9140 -2.3619 -0.0000 -0.0000 6.0917 19.6221 24.8698 8.5272 -7.1250 0.0000 -0.0000 -10.7613 55.8583 -2.8909 0.0000 -0.0000 0.0000 83.6397 -5.1397 27.3879 -15.8925 25.3746 -3.5998 0.0000 0.0000 17.1359 -21.2880 0.0509 -0.0198 7.1250 -0.0000 -0.0000 4.1556 -29.9123 1.5334
-0.2938 18.9651 -13.2293 1.7042 -4.0288 3.1168 0.0000 0.0000 0.0000 -21.1328 -8.7825 2.7805 0.1811 2.7414 7.5595 -0.1193 10.9607 -13.6738 0.1010 -2.0497 -5.6431 0.0000 0.0000 0.0000 19.9606 21.0457 4.1541 -0.6921 -5.3185 14.8192 -0.0746 -13.0896 -19.4938 -0.0108 0.6722 -1.8473 -3.2111 0.7861 2.6848 -1.1796 0.9120 -0.5894 0.5473 0.4878 -2.1421 -9.6637 -5.9393 -9.2949 7.8404 -7.8611 14.6027 3.3989 -3.7429 6.6679 -0.0000 0.0000 0.0000 -86.9341 4.8892 7.0286 12.7762 -20.9584 -2.3726 -0.0000 -0.0000 6.0393 19.6331 24.7811 8.5042 -7.1250 0.0000 -0.0000 -10.7088 55.7710 -2.8538 -0.0000 0.0000 0.0000 83.6660 -5.0592 27.3438 -15.8480 25.3141 -3.5807 0.0000 0.0000 17.1940 -21.3818 0.1900 -0.0744 7.1250 -0.0000 -0.0000 4.0758 -29.7637 1.5182
-0.2956 18.9659 -13.2312 1.7445 -4.0248 3.0878 0.0000 0.0000 0.0000 -21.1680 -8.7858 2.7875 0.1829 2.7544 7.5956 -0.1133 10.9241 -13.7208 0.0928 -1.9650 -5.4088 0.0000 0.0000 0.0000 19.9370 21.0461 4.1790 -0.6931 -5.3219 14.8291 -0.0697 -13.1136 -19.4693 -0.0129 0.7344 -2.0183 -3.2674 0.7819 2.7609 -1.1900 0.9013 -0.5687 0.5676 0.4832 -2.1641 -9.6084 -5.9546 -9.4055 7.7556 -7.8697 14.6584 3.3587 -3.7476 6.7001 0.0000 0.0000 0.0000 -86.9197 4.8750 7.0867 12.7760 -20.9581 -2.3725 -0.0000 -0.0000 6.0752 19.7106 24.7405 8.5271 -7.1250 0.0000 -0.0000 -10.6096 55.7457 -2.8204 0.0000 0.0000 0.0000 83.6765 -5.0915 27.3547 -15.9127 25.4022 -3.6084 0.0000 0.0000 17.1482 -21.5197 0.1288 -0.0508 7.1250 -0.0000 -0.0000 3.9701 -29.8299 1.4724
-0.2980 18.9642 -13.2341 1.7471 -4.0197 3.0532 0.0000 0.0000 0.0000 -21.1684 -8.7927 2.7818 0.1864 2.7808 7.6690 -0.1171 10.9600 -13.7109 0.0860 -1.8914 -5.2058 0.0000 0.0000 0.0000 19.9618 21.0446 4.2266 -0.6916 -5.3165 14.8135 -0.0648 -13.1420 -19.4516 -0.0142 0.7706 -2.1177 -3.2710 0.7881 2.8549 -1.1966 0.9050 -0.5679 0.5613 0.4857 -2.2161 -9.5864 -5.9582 -9.4878 7.6880 -7.8665 14.7815 3.3314 -3.7478 6.7499 0.0000 -0.0000 0.0000 -86.8980 4.9225 7.2819 12.8042 -20.9997 -2.3827 -0.0000 -0.0000 5.9768 19.9265 24.8135 8.6505 -7.1250 0.0000 -0.0000 -10.4182 55.8637 -2.7986 0.0000 -0.0000 0.0000 83.6658 -5.1562 27.4019 -15.9874 25.5036 -3.6405 0.0000 0.0000 17.0154 -21.6325 -0.2561 0.1016 7.1250 -0.0000 -0.0000 3.8977 -30.2434 1.4069
-0.3003 18.9635 -13.2365 1.6721 -4.0596 3.0421 0.0000 0.0000 0.0000 -21.0799 -8.7565 2.7510 0.1891 2.8003 7.7232 -0.1227 11.0128 -13.6977 0.0966 -2.0046 -5.5183 0.0000 0.0000 0.0000 20.0472 21.0434 4.2220 -0.6923 -5.3190 14.8207 -0.0764 -13.0665 -19.4836 -0.0098 0.6378 -1.7526 -3.2161 0.8161 2.9065 -1.1629 0.9427 -0.5760 0.5626 0.5045 -2.2543 -9.5799 -5.9498 -9.4247 7.6099 -7.8477 14.7744 3.3085 -3.7459 6.7316 0.0000 0.0000 0.0000 -86.9455 4.9888 7.3610 12.8443 -21.0586 -2.3970 -0.0000 -0.0000 5.9228 20.0717 25.0115 8.7819 -7.1250 0.0000 -0.0000 -10.3578 56.0937 -2.8401 0.0000 0.0000 0.0000 83.6400 -5.2387 27.3502 -16.0646 25.6081 -3.6738 0.0000 0.0000 17.0265 -21.5949 -0.7684 0.3041 7.1250 -0.0000 -0.0000 3.9511 -30.7927 1.3743
-0.3022 18.9629 -13.2362 1.6270 -4.1350 3.0764 0.0000 0.0000 0.0000 -21.0235 -8.7032 2.6709 0.1928 2.8275 7.7990 -0.1099 10.9426 -13.8110 0.0962 -2.0005 -5.5071 0.0000 0.0000 0.0000 20.0781 21.0698 4.1665 -0.6934 -5.3232 14.8326 -0.0786 -13.0135 -19.4384 -0.0068 0.5338 -1.4669 -3.1790 0.8339 2.8900 -1.1505 0.9685 -0.5819 0.5534 0.5170 -2.2516 -9.6206 -5.9287 -9.3920 7.6272 -7.8174 14.7636 3.3247 -3.7330 6.7221 0.0000 0.0000 0.0000 -86.9664 5.0773 7.4064 12.9000 -21.1405 -2.4171 -0.0000 -0.0000 5.8461 20.0854 25.0552 8.8025 -7.1250 0.0000 -0.0000 -10.3637 56.1409 -2.8536 0.0000 0.0000 0.0000 83.5977 -5.2026 27.4089 -16.0463 25.5833 -3.6659 0.0000 0.0000 16.9840 -21.5333 -0.9851 0.3887 7.1250 -0.0000 -0.0000 4.0108 -31.0244 1.3728
-0.3041 18.9636 -13.2380 1.6202 -4.2987 3.1435 0.0000 0.0000 0.0000 -21.0146 -8.5866 2.5150 0.1972 2.8600 7.8891 -0.0975 10.8589 -13.8937 0.0875 -1.9076 -5.2503 0.0000 0.0000 0.0000 20.0367 21.1264 4.0564 -0.6938 -5.3246 14.8366 -0.0778 -12.9176 -19.3013 -0.0068 0.5317 -1.4610 -3.1929 0.8804 2.8582 -1.1597 1.0313 -0.5813 0.5492 0.5482 -2.2353 -9.6338 -5.9103 -9.3838 7.6582 -7.7937 14.7263 3.3396 -3.7202 6.7083 0.0000 -0.0000 0.0000 -86.9483 5.0229 7.3931 12.8680 -21.0935 -2.4056 -0.0000 -0.0000 5.8014 20.1020 24.9281 8.7691 -7.1250 0.0000 -0.0000 -10.2876 56.0157 -2.8010 0.0000 -0.0000 0.0000 83.5448 -5.1061 27.6672 -15.9909 25.5083 -3.6421 0.0000 0.0000 16.7666 -21.6645 -0.9991 0.3968 7.1250 -0.0000 -0.0000 3.9073 -31.0410 1.3357
-0.3066 18.9635 -13.2427 1.6180 -4.4816 3.2188 0.0000 0.0000 0.0000 -21.0023 -8.4475 2.3652 0.1972 2.8598 7.8886 -0.1011 10.8710 -13.8493 0.0825 -1.8523 -5.0978 0.0000 0.0000 0.0000 19.9835 21.2032 3.9135 -0.6968 -5.3358 14.8689 -0.0793 -12.8190 -19.1866 -0.0084 0.5921 -1.6271 -3.2049 0.9305 2.8101 -1.1800 1.0996 -0.5679 0.5327 0.5817 -2.1966 -9.6041 -5.8882 -9.4318 7.6753 -7.7664 14.7223 3.3420 -3.7029 6.7123 0.0000 -0.0000 0.0000 -86.9262 4.9260 7.3771 12.8260 -21.0317 -2.3905 -0.0000 -0.0000 5.7831 20.1326 24.6495 8.6928 -7.1250 0.0000 -0.0000 -10.1289 55.7396 -2.6891 0.0000 -0.0000 0.0000 83.4941 -5.0579 27.9858 -16.0028 25.5245 -3.6472 0.0000 0.0000 16.4817 -21.6439 -0.9875 0.3918 7.1250 -0.0000 -0.0000 3.9230 -31.0284 1.3423
